<svg width="512" height="512" viewBox="0 0 512 512" xmlns="http://www.w3.org/2000/svg">
  <defs>
    <linearGradient id="bg" x1="0" y1="0" x2="1" y2="1">
      <stop offset="0" stop-color="#f2f6ff" />
      <stop offset="1" stop-color="#dbe7ff" />
    </linearGradient>
    <linearGradient id="screen" x1="0" y1="0" x2="1" y2="1">
      <stop offset="0" stop-color="#ffffff" />
      <stop offset="1" stop-color="#eef3ff" />
    </linearGradient>
  </defs>
  <rect x="32" y="32" width="448" height="448" rx="96" fill="url(#bg)" />
  <rect x="104" y="140" width="304" height="204" rx="20" fill="url(#screen)" stroke="#7a8ab8" stroke-width="10" />
  <rect x="170" y="356" width="172" height="28" rx="14" fill="#7a8ab8" />
  <rect x="140" y="384" width="232" height="24" rx="12" fill="#9aa7c7" />
  <rect x="138" y="166" width="236" height="16" rx="8" fill="#c6d4f2" />
  <rect x="138" y="194" width="204" height="12" rx="6" fill="#d5def4" />
  <rect x="138" y="216" width="188" height="12" rx="6" fill="#d5def4" />
  <rect x="138" y="238" width="224" height="12" rx="6" fill="#d5def4" />
  <rect x="138" y="260" width="172" height="12" rx="6" fill="#d5def4" />
  <path d="M300 214 L380 214 L380 184 L430 232 L380 280 L380 250 L300 250 Z" fill="#ff8f3d" />
</svg>
